<?xml version="1.0" standalone="no"?>
<!DOCTYPE svg PUBLIC "-//W3C//DTD SVG 20010904//EN"
 "http://www.w3.org/TR/2001/REC-SVG-20010904/DTD/svg10.dtd">
<svg version="1.0" xmlns="http://www.w3.org/2000/svg"
 width="844.000000pt" height="981.000000pt" viewBox="0 0 844.000000 981.000000"
 preserveAspectRatio="xMidYMid meet">

<g transform="translate(0.000000,981.000000) scale(0.100000,-0.100000)"
fill="#000000" stroke="none">
<path d="M381 9794 c-173 -46 -309 -197 -355 -394 -37 -154 -13 -363 56 -493
40 -75 136 -174 202 -206 100 -49 121 -51 602 -51 421 0 456 1 515 20 128 39
226 125 289 255 123 250 80 567 -99 746 -69 68 -125 101 -214 125 -77 20 -918
19 -996 -2z m980 -190 c72 -21 156 -105 190 -190 21 -51 24 -76 24 -189 0
-125 -1 -133 -31 -195 -42 -88 -74 -123 -146 -159 l-61 -31 -447 0 c-502 0
-503 0 -584 71 -57 50 -102 140 -118 237 -22 129 15 285 86 370 32 37 103 81
149 92 18 5 224 8 458 9 362 1 434 -1 480 -15z"/>
<path d="M1870 9230 l0 -580 100 0 100 0 0 485 0 485 363 0 c398 0 406 -1 450
-62 46 -63 28 -175 -36 -222 -27 -20 -45 -21 -334 -26 l-306 -5 314 -327 314
-327 129 0 128 -1 -180 188 c-99 103 -199 205 -221 227 -23 21 -41 42 -41 46
0 4 44 8 98 11 81 3 107 8 154 31 68 33 121 90 156 166 23 47 27 70 27 146 0
76 -4 99 -27 146 -35 76 -88 133 -156 166 l-57 28 -487 3 -488 3 0 -581z"/>
<path d="M3845 9792 c-22 -14 -114 -162 -354 -573 -178 -305 -326 -558 -328
-562 -3 -4 44 -6 103 -5 l108 3 93 160 93 160 212 5 212 5 52 90 53 90 -204 3
c-113 1 -205 5 -205 8 0 7 201 347 214 361 8 9 78 -102 275 -437 l264 -450
108 0 109 0 -44 73 c-24 39 -171 288 -326 552 -155 264 -292 490 -305 503 -30
32 -91 39 -130 14z"/>
<path d="M4941 9794 c-185 -50 -322 -206 -365 -416 -67 -328 91 -643 358 -714
39 -11 144 -14 451 -14 l400 0 53 90 c28 48 52 91 52 94 0 3 -208 7 -462 8
-454 3 -464 3 -504 25 -129 69 -203 251 -176 435 20 140 75 229 174 284 l53
29 415 3 415 3 16 28 c9 15 33 58 53 94 l38 67 -459 -1 c-367 0 -469 -3 -512
-15z"/>
<path d="M6050 9230 l0 -580 418 0 417 1 50 87 c28 47 52 90 53 94 2 5 -168 8
-377 8 l-381 0 0 485 0 485 -90 0 -90 0 0 -580z"/>
<path d="M7385 9796 c-164 -40 -292 -167 -352 -350 -22 -69 -26 -100 -27 -206
-1 -143 10 -202 61 -308 40 -86 130 -186 200 -224 104 -57 123 -58 558 -56
l398 3 53 85 c30 47 54 88 54 93 0 4 -199 7 -443 7 -498 0 -500 0 -581 71 -46
41 -100 136 -112 197 l-6 32 469 0 469 0 52 88 c29 49 52 91 52 95 0 4 -234 7
-521 7 l-521 0 6 28 c15 61 68 152 113 192 77 68 94 70 540 70 l393 0 23 38
c13 20 39 63 56 95 l33 57 -459 -1 c-325 0 -473 -4 -508 -13z"/>
<path d="M3720 8053 c-539 -29 -917 -68 -1340 -139 -1136 -190 -1968 -553
-2210 -964 -58 -98 -75 -160 -75 -270 0 -171 51 -275 215 -441 802 -808 3607
-1183 5890 -788 947 164 1691 456 2025 794 272 275 279 570 21 843 -164 173
-379 309 -706 447 -660 278 -1588 458 -2665 515 -167 9 -1007 11 -1155 3z"/>
<path d="M91 5640 c-1 -838 -3 -811 65 -940 282 -536 1519 -974 3124 -1105
333 -27 559 -35 980 -35 421 0 657 9 990 35 1155 94 2126 346 2698 700 244
150 402 322 465 505 22 65 22 68 24 820 1 428 -2 746 -7 735 -4 -11 -18 -46
-31 -78 -33 -86 -91 -170 -177 -256 -647 -644 -2611 -1039 -4622 -930 -1497
81 -2746 426 -3267 903 -113 103 -196 230 -228 349 -12 46 -14 -35 -14 -703z"/>
<path d="M93 3845 c2 -774 2 -780 24 -837 37 -98 93 -179 192 -278 691 -686
2852 -1079 4971 -905 1160 96 2169 366 2715 726 148 98 316 264 368 366 78
151 77 134 76 957 0 402 -4 722 -9 711 -4 -11 -15 -40 -24 -65 -52 -147 -202
-314 -406 -449 -131 -87 -355 -202 -528 -271 -1499 -592 -4108 -669 -5887
-175 -315 88 -553 176 -795 296 -195 97 -343 195 -455 301 -131 123 -194 221
-229 349 -13 48 -15 -26 -13 -726z"/>
<path d="M93 2065 l2 -780 23 -58 c219 -542 1331 -986 2882 -1151 449 -48 686
-60 1245 -60 531 -1 714 6 1130 45 1566 144 2752 583 3005 1113 60 127 60 121
60 921 0 401 -4 725 -8 720 -5 -6 -16 -36 -26 -67 -54 -181 -296 -407 -616
-576 -554 -294 -1482 -517 -2497 -602 -644 -53 -1380 -55 -2003 -5 -792 65
-1517 205 -2067 401 -649 230 -1030 514 -1118 830 -12 42 -13 -59 -12 -731z"/>
</g>
</svg>
